<svg id="Calque_1" data-name="Calque 1" xmlns="http://www.w3.org/2000/svg" xmlns:xlink="http://www.w3.org/1999/xlink" viewBox="0 0 254.71 294.19"><defs><style>.cls-1,.cls-4{fill:none;}.cls-2{fill:#fcc00e;}.cls-3{clip-path:url(#clip-path);}.cls-4{stroke:#fff;stroke-linecap:round;stroke-linejoin:round;stroke-width:3px;}</style><clipPath id="clip-path"><rect class="cls-1" x="47.47" y="67.21" width="159.77" height="159.77"/></clipPath></defs><polygon class="cls-2" points="3.09 75.35 3.09 218.84 127.36 290.59 251.62 218.84 251.62 75.35 127.36 3.61 3.09 75.35 3.09 75.35"/><polygon class="cls-1" points="3.09 75.35 3.09 218.84 127.36 290.59 251.62 218.84 251.62 75.35 127.36 3.61 3.09 75.35 3.09 75.35"/><g class="cls-3"><polygon class="cls-4" points="127.36 76.09 91.85 218.11 56.34 138.22 100.73 173.73 74.1 93.84 127.36 155.97 180.61 93.84 153.41 173.94 198.36 138.22 162.86 218.11 127.36 76.09 127.36 76.09"/></g></svg>